<?xml version="1.0" encoding="UTF-8" standalone="no"?>
<svg
   xmlns:dc="http://purl.org/dc/elements/1.1/"
   xmlns:cc="http://creativecommons.org/ns#"
   xmlns:rdf="http://www.w3.org/1999/02/22-rdf-syntax-ns#"
   xmlns:svg="http://www.w3.org/2000/svg"
   xmlns="http://www.w3.org/2000/svg"
   id="svg2"
   version="1.1"
   width="2522.5"
   height="1188.75"
   viewBox="0 0 2522.5 1188.75">
  <metadata
     id="metadata8">
    <rdf:RDF>
      <cc:Work
         rdf:about="">
        <dc:format>image/svg+xml</dc:format>
        <dc:type
           rdf:resource="http://purl.org/dc/dcmitype/StillImage" />
        <dc:title></dc:title>
      </cc:Work>
    </rdf:RDF>
  </metadata>
  <defs
     id="defs6" />
  <path
     style="fill:#12A5F4"
     d="m 429.85525,4.4720951 c 0.024,0.5156 11.776,80.8125999 26.1167,178.4376049 19.5814,133.30106 25.7181,177.8596 24.6448,178.9442 -0.9639,0.974 -66.5438,5.3437 -201.4292,13.4217 -121.9735,7.3048 -204.025595,12.7224 -210.318695,13.8868 -12.4823,2.3096 -21.7553,6.2608 -32.2228,13.7303 -20.009,14.2781 -33.0835,39.4349 -33.0835,63.6563 0,16.6425 46.1299,574.727 48.2291,583.4808 8.1464,33.9709 39.1997,63.3765 73.550795,69.6483 4.2496,0.7759 485.7375,15.1971 1129.99995,33.845 617.4273,17.8711 1137.8618,32.9665 1156.5209,33.5453 44.8012,1.3896 54.0177,0.1858 71.2996,-9.3127 20.2803,-11.1464 35.4594,-32.444 39.3678,-55.2364 1.1541,-6.7301 0.731,-95.3913 -1.9375,-405.9851 -1.9957,-232.2804 -3.919,-400.64153 -4.6294,-405.238 -2.6966,-17.44579 -9.4779,-30.95611 -21.8143,-43.46063 -10.666,-10.81138 -24.6362,-18.28002 -40.1751,-21.4779 l -10.2132,-2.10185 -852.7531,51.64469 -852.75315,51.64469 -2.8061,-2.9428 c -1.5433,-1.6185 -70.3847,-79.02089 -152.9808,-172.0052 C 499.87195,79.612795 431.73515,3.5345951 431.05295,3.5345951 c -0.6822,0 -1.2211,0.4218 -1.1977,0.9375 z m 198.3503,280.2866249 132.232,132.47408 810.62505,-55.0175 c 454.6957,-30.86041 815.2902,-54.82233 821.2499,-54.57298 12.0465,0.50399 18.297,3.02269 25.5834,10.30898 7.9641,7.96419 9.704,13.0495 10.8911,31.8333 1.3462,21.2997 13.8828,714.956 13.3182,736.8968 -0.3625,14.0844 -0.804,16.9713 -3.3422,21.8532 -5.4248,10.4342 -14.2668,17.4088 -25.2005,19.8781 -4.0496,0.9145 -323.8531,-5.6947 -1141.8749,-23.5987 -624.93755,-13.678 -1139.87895,-25.1758 -1144.31425,-25.5507 -15.2356,-1.2878 -28.449595,-10.7982 -35.376695,-25.4614 l -3.7121,-7.8578 -16.1079,-264.6422 c -8.8594,-145.5533 -16.216,-269.4235 -16.3481,-275.2673 -0.3359,-14.8578 2.302,-22.1391 11.3473,-31.3212 12.2942,-12.4802 -8.5271,-10.1599 245.102395,-27.3129 123.3874,-8.3447 224.7992,-15.6307 225.3597,-16.1912 0.5604,-0.5604 -9.1273,-62.854 -21.5282,-138.43021 -12.4009,-75.57618 -22.5472,-138.10489 -22.5472,-138.95279 0,-0.8479 0.5425,-1.5416 1.2055,-1.5416 0.6631,0 60.7099,59.61327 133.4375,132.47402 z"
     id="path3344" />
  <path
     id="path3334"
     d="m 2304.5824,1125.6913 c -57.0678,-1.0641 -209.9279,-4.243 -339.6892,-7.0643 -129.7612,-2.8213 -363.2203,-7.8777 -518.7979,-11.2364 -305.0003,-6.5847 -639.94898,-13.9591 -894.30893,-19.6896 -87.63981,-1.9744 -218.26572,-4.7865 -290.27982,-6.249 -72.0141,-1.4625 -135.05354,-3.751 -140.08765,-5.0855 -10.985,-2.9121 -22.971046,-12.5191 -28.175197,-22.5828 -2.981994,-5.7666 -6.381939,-49.9486 -15.804032,-205.37207 C 59.657165,555.07764 56.622175,497.8602 58.483656,491.04159 c 3.255441,-11.92469 14.680851,-22.53174 26.685989,-24.77455 15.573135,-2.90937 83.404785,-8.1244 272.685095,-20.96453 89.67794,-6.08345 167.26138,-11.72609 172.40764,-12.53925 7.14772,-1.1294 9.09238,-2.4442 8.23668,-5.56897 -0.61608,-2.24978 -1.84816,-9.64908 -2.73794,-16.44286 -1.80258,-13.7635 -37.5503,-237.84747 -39.80503,-249.51712 -1.14916,-5.94771 24.83615,18.74303 131.57636,125.02132 l 133.00834,132.43274 354.51191,-24.22805 c 355.0456,-24.26451 1063.4478,-72.02838 1206.2287,-81.32972 83.3164,-5.42757 85.4378,-5.24653 97.9873,8.36203 9.3725,10.16344 9.1845,4.12397 19.9,639.45374 2.1412,126.95563 1.7299,140.28933 -4.6982,152.30043 -2.6852,5.0173 -20.0358,15.622 -24.1772,14.7771 -1.0732,-0.219 -48.6431,-1.2686 -105.7109,-2.3326 z"
     style="fill:#ffffff" />
  <path
     id="path3336"
     d="m 2295.9358,1125.6958 c -115.4459,-2.2275 -522.9703,-10.9188 -684.3193,-14.5945 -60.4646,-1.3774 -237.2265,-5.27 -392.8042,-8.6501 -381.19989,-8.2821 -589.96553,-12.8772 -783.13786,-17.2373 -88.99856,-2.0089 -194.61101,-4.3187 -234.69433,-5.1331 -40.08332,-0.8143 -76.52006,-2.595 -80.97054,-3.9571 -10.15799,-3.109 -21.840629,-12.8156 -26.674077,-22.1625 -4.143595,-8.0128 -4.16141,-8.2627 -23.241216,-325.9693 C 63.273604,614.41775 57.693054,514.344 57.693054,505.60578 c 0,-12.90823 1.16707,-17.60518 6.22331,-25.04611 3.42282,-5.03713 8.254239,-10.24534 10.736486,-11.57381 7.373741,-3.9463 39.92963,-7.05165 157.2081,-14.99529 196.95725,-13.34052 286.33441,-19.69742 296.98424,-21.12281 9.70249,-1.2986 10.33014,-1.84576 9.23335,-8.04912 -0.64724,-3.66069 -7.32138,-45.56566 -14.83145,-93.12214 -7.51009,-47.55648 -16.38853,-103.14198 -19.72989,-123.52333 -3.34135,-20.38135 -6.70123,-40.94798 -7.46641,-45.70363 -1.24892,-7.76215 12.20756,4.89809 131.54938,123.76532 L 760.54079,418.64682 969.29522,404.32851 C 1425.732,373.02184 2140.7706,324.77944 2338.5303,311.94862 c 64.4922,-4.1843 68.5173,-3.70851 80.7384,9.54401 9.3897,10.18209 9.1043,1.07782 19.923,635.56043 2.3128,135.63414 1.9342,145.79754 -5.8745,157.71514 -4.8133,7.346 -18.8427,13.747 -29.0543,13.256 -4.5503,-0.2188 -53.2975,-1.2666 -108.3271,-2.3284 z"
     style="fill:#ffffff" />
</svg>
