<?xml version="1.0" encoding="UTF-8"?><!DOCTYPE svg PUBLIC "-//W3C//DTD SVG 1.1//EN" "http://www.w3.org/Graphics/SVG/1.1/DTD/svg11.dtd"><svg xmlns="http://www.w3.org/2000/svg"><symbol id="angular-icon" viewBox="0 0 256 270"><path d="M127.606.341L.849 44.95 20.88 211.022l106.86 58.732 107.412-59.528L255.175 44.16 127.606.341z" fill="#B3B3B3"/><path d="M242.532 53.758L127.31 14.466v241.256l96.561-53.441 18.66-148.523z" fill="#A6120D"/><path d="M15.073 54.466l17.165 148.525 95.07 52.731V14.462L15.074 54.465z" fill="#DD1B16"/><path d="M159.027 142.898L127.31 157.73H93.881l-15.714 39.305-29.228.54L127.31 23.227l31.717 119.672zm-3.066-7.467l-28.44-56.303-23.329 55.334h23.117l28.652.97z" fill="#F2F2F2"/><path d="M127.309 23.226l.21 55.902 26.47 55.377h-26.62l-.06 23.189 36.81.035 17.204 39.852 27.967.518-81.981-174.873z" fill="#B3B3B3"/></symbol><symbol id="arrows" viewBox="0 0 115.68 115.68"><path d="M2.983.006C1.343.006 0 1.343 0 2.989s1.343 2.983 2.983 2.983h102.505L.877 110.578a2.985 2.985 0 0 0 0 4.219 2.971 2.971 0 0 0 2.112.871c.77 0 1.533-.292 2.112-.871L109.713 10.191V112.69a2.984 2.984 0 0 0 2.983 2.983 2.988 2.988 0 0 0 2.983-2.983V.006H2.983z" fill="#010002"/></symbol><symbol id="back" viewBox="0 0 477.175 477.175"><path d="M145.188 238.575l215.5-215.5c5.3-5.3 5.3-13.8 0-19.1s-13.8-5.3-19.1 0l-225.1 225.1c-5.3 5.3-5.3 13.8 0 19.1l225.1 225c2.6 2.6 6.1 4 9.5 4s6.9-1.3 9.5-4c5.3-5.3 5.3-13.8 0-19.1l-215.4-215.5z"/></symbol><symbol id="bootstrap-4" viewBox="0 0 256 256"><path d="M0 222.991C0 241.223 14.779 256 33.009 256H222.99C241.223 256 256 241.221 256 222.991V33.01C256 14.777 241.221 0 222.991 0H33.01C14.777 0 0 14.779 0 33.009V222.99z" fill="#563D7C"/><path d="M106.158 113.238V76.985h31.911c3.04 0 5.97.253 8.792.76 2.822.506 5.319 1.41 7.49 2.713 2.17 1.303 3.907 3.112 5.21 5.427 1.302 2.316 1.954 5.283 1.954 8.9 0 6.513-1.954 11.217-5.862 14.111-3.907 2.895-8.9 4.342-14.979 4.342h-34.516zM72.075 50.5v155h75.112c6.947 0 13.713-.868 20.298-2.605 6.585-1.737 12.446-4.414 17.584-8.032 5.137-3.618 9.226-8.286 12.265-14.002 3.04-5.717 4.559-12.483 4.559-20.298 0-9.697-2.352-17.982-7.055-24.856-4.704-6.875-11.832-11.687-21.384-14.437 6.947-3.328 12.194-7.598 15.74-12.808 3.545-5.21 5.318-11.722 5.318-19.538 0-7.236-1.194-13.314-3.582-18.235-2.388-4.92-5.753-8.864-10.095-11.831-4.341-2.967-9.551-5.102-15.63-6.404-6.078-1.303-12.808-1.954-20.189-1.954H72.075zm34.083 128.515v-42.549h37.121c7.381 0 13.315 1.7 17.802 5.102 4.486 3.401 6.73 9.081 6.73 17.041 0 4.053-.688 7.381-2.063 9.986-1.375 2.605-3.22 4.668-5.536 6.187-2.315 1.52-4.993 2.605-8.032 3.257-3.04.65-6.223.976-9.552.976h-36.47z" fill="#FFF"/></symbol><symbol id="css3" viewBox="0 0 338.584 475.583"><path d="M4.564-63h538.584v538.583H4.564V-63z" fill="none"/><path d="M305.086 436.404l-136.21 36.676-136.212-36.676L1.232 95.879h335.29l-31.436 340.525z" fill="#2062af"/><path d="M168.875 123.46v320.368l.308.084 110.23-29.682 25.442-290.77h-135.98z" fill="#3c9cd7"/><path d="M91.571 45.849V25.581h29.571V3.403H69.393v62.684h51.75V45.849H91.57zm82.766-20.268h20.674V3.403h-51.754v22.178c6.924 6.924 10.535 10.238 20.55 20.252-5.855 0-20.55.021-20.55.02v20.234h51.754V45.849l-20.674-20.268zm73.352 0h20.673V3.403h-51.756v22.178c6.924 6.924 10.537 10.238 20.551 20.252-5.852 0-20.55.021-20.55.02v20.234h51.756V45.849L247.69 25.581zM168.754 208.606l-97.49 40.602 3.233 40.199 94.257-40.301 100.265-42.868 4.157-41.122-104.422 43.49z" fill="#fff"/><linearGradient gradientTransform="matrix(1 0 0 -1 945.516 1627.709)" y2="1419.102" x2="-825.508" y1="1338.301" x1="-825.508" gradientUnits="userSpaceOnUse" id="css3-a"><stop offset=".387" stop-color="#d1d3d4" stop-opacity="0"/><stop offset="1" stop-color="#d1d3d4"/></linearGradient><path d="M71.263 249.208l3.233 40.199 94.257-40.301v-40.5l-97.49 40.602z" fill="url(#css3-a)"/><linearGradient gradientTransform="matrix(1 0 0 -1 945.516 1627.709)" y2="1462.591" x2="-724.552" y1="1378.602" x1="-724.552" gradientUnits="userSpaceOnUse" id="css3-b"><stop offset=".387" stop-color="#d1d3d4" stop-opacity="0"/><stop offset="1" stop-color="#d1d3d4"/></linearGradient><path d="M273.176 165.117l-104.422 43.489v40.5l100.265-42.868 4.157-41.121z" fill="url(#css3-b)"/><linearGradient gradientTransform="matrix(1 0 0 -1 945.516 1627.709)" y2="1302.263" x2="-680.039" y1="1302.263" x1="-874.103" gradientUnits="userSpaceOnUse" id="css3-c"><stop offset="0" stop-color="#e8e7e5"/><stop offset="1" stop-color="#fff"/></linearGradient><path d="M71.413 249.208l3.234 40.199 144.625.46-3.235 53.599-47.59 13.398-45.748-11.551-2.772-33.268H77.42l5.545 64.225 85.945 25.412 85.48-24.951 11.09-127.523H71.412z" fill="url(#css3-c)"/><path d="M168.754 249.208h-97.49l3.233 40.199 94.257.301v-40.5zm0 107.528l-.462.129-45.742-11.551-2.772-33.268H77.271l5.544 64.225 85.94 25.412v-44.947z" opacity=".05"/><linearGradient gradientTransform="matrix(1 0 0 -1 945.516 1627.709)" y2="1442.031" x2="-672.341" y1="1442.031" x1="-883.032" gradientUnits="userSpaceOnUse" id="css3-d"><stop offset="0" stop-color="#e8e7e5"/><stop offset="1" stop-color="#fff"/></linearGradient><path d="M62.484 165.117h210.692l-4.157 41.122H67.566l-5.082-41.122z" fill="url(#css3-d)"/><path d="M168.754 165.117H62.484l5.082 41.122h101.188v-41.122z" opacity=".05"/></symbol><symbol id="facebook" viewBox="0 0 455.73 455.73"><path d="M0 0v455.73h242.704V279.691h-59.33v-71.864h59.33v-60.353c0-43.893 35.582-79.475 79.475-79.475h62.025v64.622h-44.382c-13.947 0-25.254 11.307-25.254 25.254v49.953h68.521l-9.47 71.864h-59.051V455.73H455.73V0H0z"/></symbol><symbol id="github-logo" viewBox="0 0 568.034 568.034"><path d="M550.99 0H17.051C8.948 0 2.381 6.567 2.381 14.67v538.694c0 8.104 6.567 14.67 14.67 14.67h177.498v-.129c8.011-.092 14.149-4.577 14.431-12.166.728-19.725.214-39.492.214-58.562-14.296.667-27.944 2.473-41.438 1.695-29.762-1.714-52.632-14.413-64.493-43.556-7.026-17.265-17.613-32.032-34.101-41.886-3.079-1.842-5.771-4.554-8.127-7.308-3.079-3.592-2.503-7.282 2.362-8.268 4.908-.998 10.27-1.695 15.11-.79 19.009 3.568 32.154 15.49 42.216 31.347 19.896 31.371 50.521 40.974 84.976 26.487 1.921-.808 4.363-2.766 4.725-4.553 2.778-13.887 7.968-26.549 18.427-37.65-11.628-2.154-22.399-3.739-32.962-6.188-30.417-7.038-57.742-19.7-77.724-44.848-16.303-20.514-23.758-44.528-27.185-70.086-5.367-40.031-.563-77.503 26.928-109.493 1.389-1.616 2.142-4.927 1.524-6.94-6.885-22.497-5.833-44.805.991-67.051 3.581-11.683 4.578-12.265 16.5-10.637.729.098 1.438.281 2.161.404 23.898 3.954 44.468 15.526 64.731 27.95 2.724 1.671 6.873 2.711 9.866 1.983 48.397-11.744 96.702-11.695 145.093.043 2.809.679 6.561-.288 9.247-1.695 11.016-5.759 21.561-12.454 32.718-17.914 12.98-6.346 26.652-11.12 41.371-10.857 2.576.049 6.561 2.509 7.423 4.786 8.856 23.464 10.723 47.375 3.666 71.794-.753 2.607.367 6.322 1.769 8.892 6.965 12.779 16.689 24.572 21.096 38.127 13.434 41.316 8.538 82.229-9.749 121.06-16.757 35.594-47.834 53.63-84.621 62.933-12.424 3.14-25.153 5.049-38.556 7.681 17.564 18.348 20.318 40.74 20.006 64.192-.324 24.192-.238 48.391-.251 72.589-.006 11.72 5.11 18.195 14.039 18.574-.006.037 188.723.037 188.723.037V14.67C565.653 6.567 559.087 0 550.99 0z"/></symbol><symbol id="html5" viewBox="221.807 89.47 440 621.061"><filter id="html5-a" width="150%" height="150%" x="-5%" y="-5%"><feFlood flood-color="#000" result="floodFill" flood-opacity=".5"/><feComposite in="floodFill" in2="SourceAlpha" operator="in" result="coloredAlpha"/><feGaussianBlur in="coloredAlpha" result="blur" stdDeviation="8"/><feComposite in="blur" in2="SourceGraphic" operator="out" result="maskedOffsetBlur"/><feMerge><feMergeNode in="maskedOffsetBlur"/><feMergeNode in="SourceGraphic"/></feMerge></filter><g filter="url(#html5-a)"><path fill="#e44d26" d="M261.849 660.647l-40.042-449.125h440l-40.086 449.054-180.184 49.954z"/><path fill="#f16529" d="M441.807 672.348l145.596-40.367 34.258-383.735H441.807z"/><path fill="#ebebeb" d="M441.807 414.82h-72.888l-5.035-56.406h77.923V303.33H303.683l1.32 14.778 13.538 151.794h123.266zM441.807 557.876l-.242.066-61.346-16.566-3.922-43.93h-55.294l7.718 86.489 112.834 31.323.252-.071z"/><path d="M262.745 89.47h27.992v27.656h25.606V89.47h27.993v83.75h-27.993v-28.044h-25.606v28.044h-27.99l-.002-83.75zM381.149 117.244h-24.642V89.47H433.8v27.774h-24.654v55.976H381.15v-55.976h-.001zM446.065 89.47h29.19l17.955 29.428 17.938-29.428h29.2v83.75h-27.882v-41.512l-19.259 29.778h-.481l-19.272-29.778v41.512h-27.39V89.47zM554.277 89.47h28v56.068h39.368v27.682h-67.368V89.47z"/><path fill="#fff" d="M441.617 414.82v55.082h67.83l-6.395 71.44-61.435 16.58v57.307l112.924-31.294.826-9.309 12.946-145.014 1.344-14.792h-14.842zM441.617 303.33v55.084H574.67l1.103-12.382 2.51-27.924 1.318-14.778z"/></g></symbol><symbol id="jquery" viewBox="0 0 77 72"><style id="style3">.st0{fill:#535353}.st1{opacity:.5}.st2{fill:#0868ac}</style><g id="g5" transform="translate(-31.8 -36.2)"><g id="g7"><path class="st2" d="M37.81 52.32c-6.67 9.36-5.99 21.65-1.09 31.73l.36.72c.08.15.15.31.23.46.04.09.09.17.15.26.07.16.16.31.25.47.15.28.31.56.47.83.08.15.17.3.26.45l.54.87c.08.13.16.25.24.37.25.39.51.78.79 1.17 0 .01.02.02.02.03.04.06.09.12.13.18.24.33.48.66.72.98.1.12.18.23.27.35.22.28.44.56.67.84.08.1.17.21.26.31.3.37.61.73.94 1.09 0 .01.01.01.01.02.01.02.03.03.03.04.31.34.63.68.95 1.02l.31.31c.25.26.5.51.76.76.11.1.21.2.31.3.34.33.68.65 1.04.97l.02.02a37.223 37.223 0 0 0 1.12.97c.12.11.25.21.39.32.26.21.52.42.79.63.13.11.27.22.41.33.29.22.6.43.89.65.11.08.21.16.31.24l.09.06c.28.2.57.39.86.58.13.08.25.17.37.25a44.374 44.374 0 0 0 1.72 1.07c.33.2.67.39 1.01.58.19.1.38.2.55.3.25.13.48.26.73.39.05.03.11.05.17.08.09.05.19.1.29.15.38.19.76.37 1.14.55.08.04.16.08.25.11.44.2.89.39 1.34.58.11.05.22.09.33.13.42.17.85.33 1.26.49.06.02.11.04.16.06.47.17.94.33 1.41.48.11.03.22.07.34.1.48.15.95.33 1.45.43 31.69 6.16 41.2-18.61 41.2-18.61-7.86 10-21.64 12.51-34.63 9.4-.49-.12-.97-.28-1.45-.43a4.94 4.94 0 0 0-.36-.11c-.46-.15-.93-.31-1.39-.47-.06-.02-.13-.04-.19-.07-.41-.15-.82-.31-1.23-.47l-.34-.14c-.45-.18-.89-.37-1.32-.57-.1-.04-.18-.08-.27-.12-.38-.18-.75-.35-1.12-.54-.11-.05-.22-.1-.33-.16-.29-.15-.58-.31-.87-.46-.19-.11-.38-.2-.57-.31-.35-.19-.69-.39-1.04-.59-.11-.07-.23-.13-.34-.2-.46-.27-.91-.56-1.36-.84-.12-.08-.24-.17-.36-.25-.32-.21-.64-.43-.96-.65-.11-.07-.21-.15-.3-.22-.31-.22-.61-.45-.91-.67-.14-.1-.27-.2-.4-.31-.28-.22-.55-.44-.81-.66-.12-.1-.25-.2-.37-.3-.34-.29-.68-.58-1.02-.88-.03-.03-.07-.06-.11-.1-.36-.33-.71-.66-1.07-.99l-.3-.3c-.26-.25-.52-.51-.76-.77-.11-.1-.21-.2-.31-.31-.31-.33-.63-.67-.94-1.01-.02-.02-.03-.03-.04-.05-.33-.36-.64-.73-.95-1.11-.09-.1-.17-.2-.26-.3-.22-.29-.45-.58-.68-.87-.09-.1-.17-.21-.25-.32-.28-.36-.54-.71-.79-1.08-7.12-9.95-9.56-23.59-3.66-34.69" id="path9" fill="#0868ac"/><path class="st2" d="M58.29 44.6c-4.83 6.78-4.68 15.93-1.06 23.2.61 1.22 1.29 2.4 2.06 3.53.7 1.03 1.47 2.25 2.42 3.08.34.38.68.75 1.04 1.12.1.09.18.18.28.28.35.35.71.69 1.08 1.03.02.01.03.03.04.04.01 0 .01.01.01.01.4.37.83.72 1.25 1.07.1.07.2.15.29.23.43.33.87.67 1.32.98.01.01.03.02.04.03.2.14.4.28.6.41.1.06.19.13.29.19.32.21.65.42.98.61.05.03.09.06.14.08.29.17.58.33.86.5.1.06.21.11.31.16.2.11.4.22.6.32.03.02.06.03.09.04.42.21.84.42 1.26.61.09.04.19.08.28.12.34.15.69.29 1.04.43.15.06.3.12.44.17.31.12.63.23.96.34.14.05.28.1.43.14.45.15.9.33 1.38.42 24.47 4.34 30.34-14.47 30.34-14.47-5.19 7.29-15.1 10.68-25.62 7.82-.46-.13-.92-.27-1.38-.42-.14-.04-.28-.09-.42-.14-.32-.11-.65-.23-.96-.34-.15-.06-.29-.11-.43-.17-.35-.13-.7-.28-1.04-.43-.09-.04-.19-.08-.28-.12-.43-.19-.86-.4-1.27-.61-.22-.1-.43-.22-.65-.33-.12-.06-.24-.13-.36-.2-.28-.15-.54-.31-.81-.46-.06-.04-.13-.08-.19-.11-.33-.2-.66-.4-.98-.61-.09-.06-.19-.13-.29-.2-.22-.14-.43-.29-.63-.43-.45-.31-.89-.65-1.31-.98l-.3-.24c-4.57-3.7-8.17-8.72-9.85-14.38-1.76-5.88-1.29-12.44 1.94-17.74" id="path11" fill="#0868ac"/><path class="st2" d="M75.1 38.8c-2.8 4.12-3.07 9.23-1.13 13.78 2.05 4.83 6.24 8.62 11.14 10.42.2.07.4.14.61.21.09.03.18.06.26.09.29.09.58.2.88.25 13.54 2.62 17.21-6.95 18.18-8.35-3.21 4.63-8.62 5.74-15.25 4.13-.52-.13-1.1-.31-1.6-.49a20.8 20.8 0 0 1-1.91-.79c-1.18-.56-2.3-1.25-3.34-2.04-5.94-4.5-9.62-13.09-5.75-20.09" id="path13" fill="#0868ac"/></g></g></symbol><symbol id="linkedin" viewBox="0 0 455 455"><g fill-rule="evenodd" clip-rule="evenodd"><path d="M246.4 204.35v-.665c-.136.223-.324.446-.442.665h.442z"/><path d="M0 0v455h455V0H0zm141.522 378.002H74.016V174.906h67.506v203.096zm-33.753-230.816h-.446C84.678 147.186 70 131.585 70 112.085c0-19.928 15.107-35.087 38.211-35.087 23.109 0 37.31 15.159 37.752 35.087 0 19.5-14.643 35.101-38.194 35.101zM385 378.002h-67.524V269.345c0-27.291-9.756-45.92-34.195-45.92-18.664 0-29.755 12.543-34.641 24.693-1.776 4.34-2.24 10.373-2.24 16.459v113.426h-67.537s.905-184.043 0-203.096H246.4v28.779c8.973-13.807 24.986-33.547 60.856-33.547 44.437 0 77.744 29.02 77.744 91.398v116.465z"/></g></symbol><symbol id="logo-javascript" viewBox="0 0 1052 1052"><path fill="#f0db4f" d="M0 0h1052v1052H0z"/><path d="M965.9 801.1c-7.7-48-39-88.3-131.7-125.9-32.2-14.8-68.1-25.399-78.8-49.8-3.8-14.2-4.3-22.2-1.9-30.8 6.9-27.9 40.2-36.6 66.6-28.6 17 5.7 33.1 18.801 42.8 39.7 45.4-29.399 45.3-29.2 77-49.399-11.6-18-17.8-26.301-25.4-34-27.3-30.5-64.5-46.2-124-45-10.3 1.3-20.699 2.699-31 4-29.699 7.5-58 23.1-74.6 44-49.8 56.5-35.6 155.399 25 196.1 59.7 44.8 147.4 55 158.6 96.9 10.9 51.3-37.699 67.899-86 62-35.6-7.4-55.399-25.5-76.8-58.4-39.399 22.8-39.399 22.8-79.899 46.1 9.6 21 19.699 30.5 35.8 48.7 76.2 77.3 266.899 73.5 301.1-43.5 1.399-4.001 10.6-30.801 3.199-72.101zm-394-317.6h-98.4c0 85-.399 169.4-.399 254.4 0 54.1 2.8 103.7-6 118.9-14.4 29.899-51.7 26.2-68.7 20.399-17.3-8.5-26.1-20.6-36.3-37.699-2.8-4.9-4.9-8.7-5.601-9-26.699 16.3-53.3 32.699-80 49 13.301 27.3 32.9 51 58 66.399 37.5 22.5 87.9 29.4 140.601 17.3 34.3-10 63.899-30.699 79.399-62.199 22.4-41.3 17.6-91.3 17.4-146.6.5-90.2 0-180.4 0-270.9z" fill="#323330"/></symbol><symbol id="next" viewBox="0 0 477.175 477.175"><path d="M360.731 229.075l-225.1-225.1c-5.3-5.3-13.8-5.3-19.1 0s-5.3 13.8 0 19.1l215.5 215.5-215.5 215.5c-5.3 5.3-5.3 13.8 0 19.1 2.6 2.6 6.1 4 9.5 4 3.4 0 6.9-1.3 9.5-4l225.1-225.1c5.3-5.2 5.3-13.8.1-19z"/></symbol><symbol id="play-arrow" viewBox="0 0 357 357"><path d="M38.25 0v357l280.5-178.5z"/></symbol><symbol id="responsive-design" viewBox="0 0 415 250"><path d="M216.906 233.545c-5.207-3.826-5.758-9.575-5.758-9.575l-1.951-12.473h-62.204l-1.957 12.473s-.544 5.75-5.748 9.575c-5.198 3.83-9.306 7.113-5.198 7.67 3.955.53 41.256.047 44.008 0 2.759.047 40.052.53 44.011 0 4.099-.557-.01-3.832-5.203-7.67zM72.215 128.856c0-5.77-4.681-10.45-10.452-10.45H12.13c-5.771 0-10.453 4.68-10.453 10.45v109.718c0 5.777 4.682 10.453 10.453 10.453h49.637c5.768 0 10.452-4.676 10.452-10.453V128.856h-.004zm-40.453 1.308h10.451c.722 0 1.306.583 1.306 1.3 0 .724-.584 1.312-1.306 1.312H31.762a1.313 1.313 0 0 1-1.308-1.312c.001-.725.587-1.3 1.308-1.3zm4.79 112.683a5.227 5.227 0 1 1 5.225-5.227 5.222 5.222 0 0 1-5.225 5.227zm29.134-14.717H8.208v-87.52h57.479v87.52zM399.02 58.3H291.523c-8.095 0-14.657 6.557-14.657 14.654v153.854c0 8.096 6.563 14.662 14.657 14.662H399.02c8.1 0 14.657-6.566 14.657-14.662V72.951c-.004-8.097-6.561-14.652-14.657-14.652zm-74.795 175.015c-4.047 0-7.334-3.274-7.334-7.318a7.334 7.334 0 0 1 7.334-7.33c4.04 0 7.315 3.282 7.315 7.33a7.314 7.314 0 0 1-7.315 7.318zm21.043 0c-4.04 0-7.323-3.274-7.323-7.318a7.324 7.324 0 1 1 14.649 0 7.314 7.314 0 0 1-7.326 7.318zm21.063 0a7.318 7.318 0 0 1-7.327-7.318 7.325 7.325 0 1 1 7.327 7.318zm38.185-21.167H286.027V71.116h118.489v141.032zM310.224 45.94h18.017V13.311c0-6.639-5.379-12.014-12.014-12.014H39.964c-6.633 0-12.014 5.375-12.014 12.014v92.74h18.021V19.313h264.253V45.94zM84.576 163.45v36.033h179.931V163.45H84.576zm93.517 26.256a8.244 8.244 0 0 1-8.24-8.24c0-4.546 3.692-8.239 8.24-8.239a8.243 8.243 0 0 1 8.24 8.24c0 4.545-3.691 8.24-8.24 8.24z"/></symbol><symbol id="sass" viewBox="0 0 512 384"><path fill="#CF649A" d="M440.6 220.6c-17.9.101-33.4 4.4-46.4 10.801-4.8-9.5-9.6-17.801-10.399-24-.9-7.2-2-11.601-.9-20.2C384 178.6 389 166.4 389 165.4c-.101-.9-1.101-5.3-11.4-5.4s-19.2 2-20.2 4.7-3 8.9-4.3 15.3c-1.8 9.4-20.6 42.7-31.3 60.2-3.5-6.8-6.5-12.8-7.101-17.601-.899-7.199-2-11.6-.899-20.199 1.1-8.601 6.1-20.8 6.1-21.8-.1-.9-1.1-5.3-11.399-5.4-10.301-.1-19.2 2-20.2 4.7s-2.1 9.1-4.3 15.3C281.9 201.4 256.9 257 250.4 271.5c-3.3 7.4-6.199 13.3-8.3 17.3-2.1 4-.1.3-.3.7-1.8 3.4-2.8 5.3-2.8 5.3v.101c-1.4 2.5-2.9 4.899-3.601 4.899-.5 0-1.5-6.7.2-15.899 3.7-19.301 12.7-49.4 12.601-50.5 0-.5 1.699-5.801-5.801-8.5-7.3-2.7-9.899 1.8-10.5 1.8-.6 0-1.1 1.6-1.1 1.6s8.1-33.899-15.5-33.899c-14.8 0-35.2 16.1-45.3 30.8-6.4 3.5-20 10.899-34.4 18.8-5.5 3-11.2 6.2-16.6 9.1L117.9 251.9c-28.6-30.5-81.5-52.1-79.3-93.1.8-14.9 6-54.2 101.601-101.8 78.3-39 141-28.3 151.899-4.5 15.5 34-33.5 97.2-114.899 106.3-31 3.5-47.301-8.5-51.4-13-4.3-4.7-4.9-4.9-6.5-4-2.6 1.4-1 5.6 0 8.1 2.4 6.3 12.4 17.5 29.4 23.1 14.899 4.9 51.3 7.6 95.3-9.4 49.3-19.1 87.8-72.1 76.5-116.4-11.5-45.1-86.3-59.9-157-34.8C121.4 27.4 75.8 50.8 43 81.5 4 117.9-2.2 149.7.4 162.9c9.101 47.1 74 77.8 100 100.5-1.3.699-2.5 1.399-3.6 2-13 6.399-62.5 32.3-74.9 59.699-14 31 2.2 53.301 13 56.301 33.4 9.3 67.6-7.4 86.1-34.9 18.399-27.5 16.2-63.2 7.7-79.5l-.301-.6 10.2-6c6.601-3.9 13.101-7.5 18.8-10.601-3.199 8.7-5.5 19-6.699 34-1.4 17.601 5.8 40.4 15.3 49.4 4.2 3.899 9.2 4 12.3 4 11 0 16-9.101 21.5-20 6.8-13.3 12.8-28.7 12.8-28.7s-7.5 41.7 13 41.7c7.5 0 15-9.7 18.4-14.7v.1s.2-.3.6-1a36.13 36.13 0 0 0 1.2-1.899v-.2c3-5.2 9.7-17.1 19.7-36.8 12.899-25.4 25.3-57.2 25.3-57.2s1.2 7.8 4.9 20.6c2.199 7.601 6.999 15.9 10.699 24-3 4.2-4.8 6.601-4.8 6.601l.1.1c-2.399 3.2-5.1 6.601-7.899 10-10.2 12.2-22.4 26.101-24 30.101-1.9 4.699-1.5 8.199 2.2 11 2.7 2 7.5 2.399 12.6 2 9.2-.601 15.6-2.9 18.8-4.301 5-1.8 10.7-4.5 16.2-8.5 10-7.399 16.1-17.899 15.5-31.899-.3-7.7-2.8-15.3-5.9-22.5.9-1.3 1.801-2.601 2.7-4 15.8-23.101 28-48.5 28-48.5s1.2 7.8 4.9 20.6c1.899 6.5 5.7 13.601 9.1 20.601-14.8 12.1-24.1 26.1-27.3 35.3-5.9 17-1.3 24.7 7.4 26.5 3.899.8 9.5-1 13.699-2.8 5.2-1.7 11.5-4.601 17.301-8.9 10-7.4 19.6-17.7 19.1-31.6-.3-6.4-2-12.7-4.3-18.7 12.6-5.2 28.899-8.2 49.6-5.7 44.5 5.2 53.3 33 51.601 44.6-1.7 11.601-11 18-14.101 20-3.1 1.9-4.1 2.601-3.8 4 .4 2.101 1.8 2 4.5 1.601 3.7-.601 23.4-9.5 24.2-30.899 1.2-27.504-24.9-57.504-71.2-57.205zM97.4 336.3c-14.7 16.1-35.4 22.2-44.2 17-9.5-5.5-5.801-29.2 12.3-46.3 11-10.4 25.3-20 34.7-25.9 2.1-1.3 5.3-3.199 9.1-5.5.6-.399 1-.6 1-.6.7-.4 1.5-.9 2.3-1.4 6.7 24.4.3 45.8-15.2 62.7zm107.5-73.1c-5.1 12.5-15.9 44.6-22.4 42.8-5.601-1.5-9-25.8-1.101-49.8 4-12.101 12.5-26.5 17.5-32.101 8.101-9 16.9-12 19.101-8.3 2.6 4.801-9.9 39.601-13.1 47.401zm88.7 42.4c-2.2 1.101-4.2 1.9-5.1 1.301-.7-.4.899-1.9.899-1.9s11.1-11.9 15.5-17.4c2.5-3.199 5.5-6.899 8.7-11.1v1.2C313.6 292.1 299.8 301.7 293.6 305.6zm68.399-15.6c-1.6-1.2-1.399-4.9 4-16.5 2.101-4.6 6.9-12.3 15.2-19.6 1 3 1.601 5.899 1.5 8.6-.099 18-12.899 24.7-20.7 27.5z"/></symbol><symbol id="skype" viewBox="0 0 455.731 455.731"><path d="M0 0v455.731h455.731V0H0zm306.808 384.297a84.042 84.042 0 0 1-42.588-11.532 147.043 147.043 0 0 1-28.107 2.708c-80.82 0-146.338-65.518-146.338-146.338 0-9.615.938-19.01 2.708-28.107a84.047 84.047 0 0 1-11.532-42.588c0-46.65 37.817-84.467 84.467-84.467a84.058 84.058 0 0 1 42.589 11.532 147.043 147.043 0 0 1 28.107-2.708c80.82 0 146.338 65.518 146.338 146.338 0 9.615-.938 19.01-2.708 28.107a84.047 84.047 0 0 1 11.532 42.588c-.001 46.65-37.818 84.467-84.468 84.467z"/><path d="M247.392 206.635c-54-10.5-57.5-27-44.5-38.5s51.642-16.665 62.5 3.5c10.5 19.5 18 27.5 32.5 24 13.833-3.339 15.833-22.5 10-34-4.707-9.279-26-33-68-33s-86 15.5-86 54 40 55.5 78.5 61 47.5 22 42.5 34-21.5 23.5-46.5 21-36.535-23.433-40-34c-3.333-10.167-15-11.5-20.5-11s-23 7.5-15 32 34 44 86 44 82.5-32 82.5-62.5-20-50-74-60.5z"/></symbol><symbol id="vk" viewBox="0 0 455.731 455.731"><path d="M0 0v455.731h455.731V0H0zm365.342 252.874c10.995 11.342 22.766 21.954 33.414 33.605 7.738 8.477 14.9 17.674 21.032 27.355 7.756 12.245 2.965 23.778-11.524 25.832-9.115 1.286-53.641.01-55.942 0-11.971-.054-22.464-4.207-30.914-12.336-9.398-9.052-17.939-18.979-26.963-28.423-2.719-2.847-5.621-5.575-8.75-7.957-7.382-5.63-14.627-4.38-18.076 4.289-2.947 7.446-5.493 27-5.612 28.669-.62 8.732-6.177 14.298-15.959 14.836-28.24 1.533-55.605-1.615-81.098-15.274-21.607-11.57-38.861-27.93-53.807-47.009-23.742-30.304-42.495-63.615-59.616-97.904-.875-1.753-18.216-38.653-18.682-40.396-1.549-5.836-.104-11.411 4.827-13.33 3.074-1.197 60.248-.004 61.199.047 9.123.493 15.345 4.342 19.187 13.812 10.922 26.972 24.764 52.402 42.995 75.231 2.418 3.039 5.466 5.739 8.677 7.938 4.69 3.221 9.115 2.089 11.022-3.276 2.017-5.63 3.868-17.04 3.978-22.952.301-15.448-.045-25.572-.875-41.001-.538-9.882-4.051-18.559-18.587-21.178-4.489-.812-4.906-4.507-2.022-8.193 6.004-7.674 14.368-8.897 23.438-9.381 14.7-.794 29.454-.146 44.172 0 5.995.055 12.026.538 17.93 1.825 7.701 1.679 11.825 7.081 13.094 14.599.657 3.878.995 7.865.903 11.789-.383 16.862-1.195 33.715-1.387 50.568-.082 6.615.401 13.395 1.816 19.837 1.98 8.979 8.093 11.232 14.344 4.745 7.938-8.24 14.937-17.51 21.506-26.926 11.935-17.127 20.849-35.923 28.523-55.303 3.969-10 7.008-12.172 17.765-12.199 20.22-.046 40.44-.064 60.66 0 3.586.018 7.336.356 10.721 1.432 5.493 1.752 7.674 6.232 6.387 11.917-3.002 13.322-10.201 24.645-17.911 35.531-12.373 17.464-25.339 34.509-38.003 51.772-1.615 2.199-3.038 4.544-4.362 6.926-4.735 8.557-4.407 13.356 2.5 20.483z"/></symbol></svg>